<svg xmlns="http://www.w3.org/2000/svg" viewBox="0 0 500 500" width="500" height="500" class="illustration"><g id="Layer_10" data-name="Layer 10"><path d="M193.56,97.38,249,68l56.49,32.67s-24.09,12.61-22.33,14.61-1.76,37.09-1.76,37.09-39,12.45-65.87,0l-1.79-39.15Z" fill="#3fe2fd"></path><rect x="155.29" y="48.32" width="21.81" height="138.9" fill="#3fe2fd"></rect><rect x="64.14" y="80.66" width="22.98" height="244.54" fill="#3fe2fd"></rect><path d="M33.5,325.2H71.8a0,0,0,0,1,0,0v60.51a0,0,0,0,1,0,0H56.48a23,23,0,0,1-23-23V325.2A0,0,0,0,1,33.5,325.2Z" fill="#3fe2fd"></path><rect x="184.93" y="331.78" width="69.17" height="22.29" fill="#3fe2fd"></rect><ellipse cx="250.76" cy="241.29" rx="44.83" ry="15.74" fill="#3fe2fd"></ellipse></g><g id="Layer_3" data-name="Layer 3"><path d="M247.26,137.18a6.94,6.94,0,0,1-3.5-.94l-55.33-31.95a7,7,0,0,1,0-12.12l55.33-31.95a7,7,0,0,1,7,0l55.34,32a7,7,0,0,1,0,12.12l-55.34,32A6.94,6.94,0,0,1,247.26,137.18ZM205.93,98.23l41.33,23.87L288.6,98.23,247.26,74.36Z" fill="#251ac7"></path><path d="M247.58,161.05a84.34,84.34,0,0,1-28.42-4.92L212,153.58A7,7,0,0,1,207.4,147V111.21a7,7,0,0,1,14,0v30.85l2.48.89a70.53,70.53,0,0,0,46.88.19l3.18-1.12V110.73a7,7,0,0,1,14,0V147a7,7,0,0,1-4.69,6.61l-7.87,2.75A84.41,84.41,0,0,1,247.58,161.05Z" fill="#251ac7"></path><path d="M302.6,129.28a7,7,0,0,1-7-7v-24a7,7,0,0,1,14,0v24A7,7,0,0,1,302.6,129.28Z" fill="#251ac7"></path><path d="M437.7,390.36H62.3a33.89,33.89,0,0,1-33.84-33.85V324.78a7,7,0,0,1,7-7H464.54a7,7,0,0,1,7,7v31.73A33.89,33.89,0,0,1,437.7,390.36ZM42.46,331.78v24.73A19.87,19.87,0,0,0,62.3,376.36H437.7a19.87,19.87,0,0,0,19.84-19.85V331.78Z" fill="#251ac7"></path><path d="M315.9,359.6H184.1a7,7,0,0,1-7-7V324.78a7,7,0,0,1,7-7H315.9a7,7,0,0,1,7,7V352.6A7,7,0,0,1,315.9,359.6Zm-124.8-14H308.9V331.78H191.1Z" fill="#251ac7"></path><path d="M436,331.78H64a7,7,0,0,1-7-7V81.68a7,7,0,0,1,7-7h85.83a7,7,0,0,1,0,14H71v229.1H429V88.68H347a7,7,0,0,1,0-14h89a7,7,0,0,1,7,7v243.1A7,7,0,0,1,436,331.78Z" fill="#251ac7"></path><path d="M390.24,298.73h-286a7,7,0,0,1-7-7V121.83a7,7,0,0,1,7-7H149.5a7,7,0,1,1,0,14H111.28v155.9h272V128.83H347a7,7,0,1,1,0-14h43.29a7,7,0,0,1,7,7v169.9A7,7,0,0,1,390.24,298.73Z" fill="#251ac7"></path><path d="M249.12,239.52A7,7,0,0,1,243,236l-19.6-34.74H153.75a7,7,0,0,1-7-7V46.39a7,7,0,0,1,7-7H344.48a7,7,0,0,1,7,7V194.22a7,7,0,0,1-7,7H274.81L255.21,236A7,7,0,0,1,249.12,239.52Zm-88.37-52.3h66.76a7,7,0,0,1,6.1,3.56l15.51,27.49,15.51-27.49a7,7,0,0,1,6.09-3.56h66.76V53.39H160.75Z" fill="#251ac7"></path></g></svg>